<svg width="137" height="255" viewBox="0 0 137 255" fill="none" xmlns="http://www.w3.org/2000/svg">
<path d="M88.809 197C84.949 197 81.6037 195.649 78.773 192.947C76.071 190.245 74.72 186.9 74.72 182.911V153.768C74.72 149.908 76.071 146.627 78.773 143.925C81.6037 141.094 84.949 139.679 88.809 139.679H103.863C105.922 139.679 107.594 139.036 108.881 137.749C110.296 136.334 111.004 134.661 111.004 132.731V125.59C111.004 123.66 110.296 122.052 108.881 120.765C107.594 119.35 105.922 118.642 103.863 118.642H83.019L87.072 100.5H115.057C118.917 100.5 122.198 101.915 124.9 104.746C127.731 107.448 129.146 110.729 129.146 114.589V197H88.809ZM99.81 178.858H111.004V157.821H99.81C97.88 157.821 96.2073 158.529 94.792 159.944C93.5053 161.231 92.862 162.839 92.862 164.769V171.91C92.862 173.84 93.5053 175.513 94.792 176.928C96.2073 178.215 97.88 178.858 99.81 178.858Z" fill="#A59DFF"/>
<path d="M13.8 197V36H82.8C87.2467 36 91.08 37.61 94.3 40.83C97.52 44.05 99.13 47.96 99.13 52.56V102.01C99.13 106.61 97.52 110.52 94.3 113.74C91.08 116.96 87.2467 118.57 82.8 118.57H77.97L99.13 197H77.97L56.58 118.57H35.19V197H13.8ZM35.19 97.18H69.69C71.8367 97.18 73.7533 96.4133 75.44 94.88C77.1267 93.1933 77.97 91.2 77.97 88.9V65.67C77.97 63.37 77.1267 61.4533 75.44 59.92C73.7533 58.2333 71.8367 57.39 69.69 57.39H35.19V97.18Z" fill="#685DE6"/>
<path d="M129 42.5V36H116V42.5H129ZM116 65C116 68.5899 118.91 71.5 122.5 71.5C126.09 71.5 129 68.5899 129 65H116ZM116 42.5V65H129V42.5H116Z" fill="#685DE5"/>
<circle cx="122.5" cy="82.5" r="6.5" fill="#685DE5"/>
</svg>
