<svg width="90" height="90" viewBox="0 0 90 90" fill="none" xmlns="http://www.w3.org/2000/svg">
<path d="M45 7.5C24.6712 7.5 7.5 24.6712 7.5 45C7.5 65.3288 24.6712 82.5 45 82.5C65.3288 82.5 82.5 65.3288 82.5 45C82.5 24.6712 65.3288 7.5 45 7.5ZM45 26.25C51.4762 26.25 56.25 31.02 56.25 37.5C56.25 43.98 51.4762 48.75 45 48.75C38.5275 48.75 33.75 43.98 33.75 37.5C33.75 31.02 38.5275 26.25 45 26.25ZM25.8525 62.895C29.2163 57.945 34.8262 54.645 41.25 54.645H48.75C55.1775 54.645 60.7838 57.945 64.1475 62.895C59.355 68.025 52.5563 71.25 45 71.25C37.4437 71.25 30.645 68.025 25.8525 62.895Z" fill="white"/>
</svg>
